<?xml version="1.0" encoding="utf-8"?>
<!-- Generator: Adobe Illustrator 16.0.0, SVG Export Plug-In . SVG Version: 6.00 Build 0)  -->
<!DOCTYPE svg PUBLIC "-//W3C//DTD SVG 1.1//EN" "http://www.w3.org/Graphics/SVG/1.1/DTD/svg11.dtd">
<svg version="1.1" id="Layer_1" xmlns="http://www.w3.org/2000/svg" xmlns:xlink="http://www.w3.org/1999/xlink" x="0px" y="0px"
	 width="155px" height="90px" viewBox="0 0 155 90" enable-background="new 0 0 155 90" xml:space="preserve">
<g>
	<path fill="#292929" d="M51.457,44.055v6.438c-1.339,0.707-3.258,1.387-5.759,1.387c-5.456,0-7.829-3.964-7.829-8.584
		c0-4.85,2.422-8.841,8.131-8.841c1.668,0,3.917,0.277,5.23,0.884l-0.658,2.449c-0.984-0.402-2.423-0.757-4.116-0.757
		c-3.791,0-5.531,2.221-5.531,6.265c0,3.738,1.489,6.036,5.43,6.036c0.581,0,1.414-0.104,2.096-0.279v-4.998H51.457z"/>
	<path fill="#292929" d="M61.585,48.901V39h2.93v12.626h-2.93v-0.906h-0.126c-1.238,0.784-2.451,1.159-3.89,1.159
		c-2.348,0-3.989-1.261-3.989-3.938V39h2.927v7.832c0,1.514,0.152,2.701,2.121,2.701C59.89,49.533,60.802,49.207,61.585,48.901"/>
	<path fill="#292929" d="M69.008,34.026c0.936,0,1.72,0.783,1.72,1.743c0,0.934-0.785,1.717-1.72,1.717
		c-0.959,0-1.742-0.783-1.742-1.717C67.266,34.809,68.05,34.026,69.008,34.026 M70.474,51.627H67.52V39h2.954V51.627z"/>
	<polygon fill="#292929" points="76.688,51.627 73.732,51.627 73.732,33.951 76.688,33.698 	"/>
	<path fill="#292929" d="M87.221,39.456v-5.505l2.929-0.253v17.929h-2.929v-0.882h-0.129c-1.083,0.859-1.993,1.137-3.284,1.137
		c-3.657,0-5.098-3.028-5.098-6.312c0-3.79,1.541-6.821,5.555-6.821c1.038,0,2.021,0.251,2.879,0.759
		C87.17,39.48,87.193,39.48,87.221,39.456 M84.442,49.533c1.287,0,1.919-0.255,2.778-0.505v-7.551
		c-0.809-0.253-1.517-0.379-2.53-0.379c-2.321,0-3.004,1.566-3.004,4.344C81.687,47.714,82.142,49.533,84.442,49.533"/>
</g>
<g>
	<path fill="#727272" d="M93.358,48.346c1.513,0.631,3.485,0.984,4.876,0.984c1.867,0,2.901-0.882,2.901-2.246
		c0-1.514-1.239-2.197-3.105-2.804c-2.905-0.934-5.251-1.87-5.251-5.102c0-3.13,2.776-4.723,6.062-4.723
		c1.842,0,3.584,0.429,4.746,0.884l-0.656,2.577c-1.391-0.607-3.08-0.886-4.09-0.886c-1.694,0-2.933,0.658-2.933,2.047
		c0,1.49,1.565,2.094,3.385,2.652c3.056,0.933,4.95,2.425,4.95,5.103c0,3.131-2.475,5.048-5.834,5.048
		c-2.25,0-4.443-0.478-5.733-1.135L93.358,48.346z"/>
	<path fill="#727272" d="M114.094,48.901V39h2.929v12.626h-2.929v-0.906h-0.126c-1.24,0.784-2.449,1.159-3.892,1.159
		c-2.349,0-3.989-1.261-3.989-3.938V39h2.931v7.832c0,1.514,0.151,2.701,2.121,2.701C112.401,49.533,113.311,49.207,114.094,48.901"
		/>
	<path fill="#727272" d="M122.429,51.175v5.505h-2.934V39h2.934v0.885h0.127c1.06-0.885,2.097-1.137,3.457-1.137
		c3.665,0,4.929,3.03,4.929,6.315c0,3.789-1.542,6.817-5.559,6.817c-1.033,0-2.021-0.255-2.879-0.758
		C122.479,51.148,122.453,51.148,122.429,51.175 M125.206,41.098c-1.29,0-1.919,0.255-2.777,0.503v7.604
		c0.808,0.255,1.514,0.377,2.524,0.377c2.323,0,3.006-1.618,3.006-4.395C127.959,42.914,127.505,41.098,125.206,41.098"/>
	<path fill="#727272" d="M142.735,50.998c-1.34,0.581-2.726,0.884-4.37,0.884c-3.735,0-6.19-1.365-6.19-6.465
		c0-4.369,2.123-6.667,5.857-6.667c3.714,0,5.459,2.044,5.459,5.53c0,0.203-0.024,1.112-0.153,1.667h-8.236
		c0.104,3.158,1.572,3.586,3.596,3.586c1.076,0,2.618-0.279,3.551-0.63L142.735,50.998z M135.154,43.925h5.413
		c0.022-1.867-0.938-2.827-2.582-2.827C136.471,41.098,135.438,41.881,135.154,43.925"/>
	<path fill="#727272" d="M152.713,41.275c-2.121-0.075-3.406,0.253-4.17,0.556v9.795h-2.951V39h2.951v0.936h0.103
		c1.062-0.708,2.371-1.314,4.067-1.139V41.275L152.713,41.275z"/>
</g>
<g>
	<g>
		<path fill="#7F7F7F" d="M22.775,47.456c0.274,0.132,0.544,0.272,0.811,0.419c0,0.001,0,0.001,0.001,0.001
			c1.507,0.839,2.984,1.947,3.865,3.46c0.874,1.504,1.177,3.524,0.782,5.221c0,0.002,0,0.002,0.001,0.003
			c-0.1,0.426-0.247,0.843-0.455,1.228c-0.107,0.216-0.385,0.312-0.603,0.206h-0.002c-0.004-0.002-0.01-0.004-0.015-0.008
			l-2.364-1.15c-0.014-0.005-0.025-0.013-0.038-0.019c0.001,0,0.002,0.002,0.003,0.004c-0.131-0.064-0.228-0.204-0.245-0.349
			c0.001,0.003,0.001,0.003,0.002,0.005c-0.016-0.108,0.007-0.214,0.062-0.302c0.653-1.313,0.817-2.851,0.462-4.271
			c-0.531-2.134-2.114-3.829-3.835-5.108C21.744,46.979,22.266,47.207,22.775,47.456z"/>
		<path fill="#7F7F7F" d="M20.063,52.045c0.04,0.05,0.098,0.094,0.154,0.12c0.783,0.471,1.351,1.23,1.595,2.109
			c0.258,1.083,0.142,2.161-0.188,3.216c0.207-0.299,0.391-0.614,0.557-0.937l0,0c0.035-0.069,0.072-0.142,0.105-0.21l0,0
			c0.003-0.008,0.008-0.017,0.011-0.024l0,0c0.011-0.022,0.021-0.044,0.033-0.067l0,0c0.215-0.458,0.396-0.933,0.515-1.424h0
			c0.023-0.098,0.045-0.195,0.063-0.294c0,0,0,0-0.001,0c0.287-1.529-0.349-3.323-1.72-4.155c-0.226-0.147-0.55-0.061-0.664,0.187
			l-0.527,0.986L20,51.554c-0.077,0.158-0.053,0.353,0.059,0.487c-0.001,0-0.003-0.002-0.004-0.004
			C20.057,52.041,20.061,52.043,20.063,52.045z"/>
		<path fill="#7F7F7F" d="M20.161,60.232l0.119-0.22c0,0,0,0-0.001,0l1.096-2.055c0.146-0.226,0.061-0.535-0.177-0.656
			c-0.001,0-0.002,0-0.002,0c0-0.002,0-0.002,0-0.002c-1.589-0.817-2.748-2.314-3.188-4.038l0,0
			c-0.467-1.829-0.181-3.772,0.374-5.548c0,0-0.039,0.054-0.105,0.153l0,0c-0.486,0.727-0.906,1.503-1.266,2.299h0
			c-0.034,0.073-0.067,0.152-0.1,0.228l0,0c-0.267,0.617-0.494,1.257-0.659,1.909c0,0,0.001,0,0.001,0
			c-0.006,0.023-0.012,0.046-0.019,0.071c0,0,0,0,0.001,0c-0.021,0.08-0.04,0.159-0.057,0.239c0.001,0,0.002,0,0.003,0
			c-0.122,0.542-0.202,1.099-0.212,1.656c0,0.002,0.001,0.002,0.002,0.002c-0.038,1.889,0.844,3.893,2.19,5.217l0,0
			c0.396,0.39,0.851,0.735,1.351,0.975C19.746,60.595,20.063,60.487,20.161,60.232z"/>
	</g>
	<g>
		<path fill="#7F7F7F" d="M23.83,40.456c0.211-0.219,0.428-0.433,0.65-0.64c0,0,0.001-0.001,0.001-0.001
			c1.328-1.237,2.941-2.358,4.766-2.663c1.624-0.27,3.507,0.067,4.921,0.92c0.001,0,0.002,0,0.003,0
			c0.375,0.226,0.728,0.497,1.029,0.812c0.173,0.17,0.177,0.46,0.009,0.636v0.002c-0.003,0.004-0.007,0.009-0.011,0.013
			l-1.824,1.894c-0.009,0.011-0.021,0.02-0.031,0.031c0.001-0.001,0.003-0.002,0.005-0.002c-0.102,0.104-0.263,0.155-0.406,0.126
			c0.001,0,0.002-0.001,0.004-0.001c-0.107-0.019-0.2-0.073-0.267-0.151c-1.043-1.024-2.449-1.652-3.905-1.757
			c-2.199-0.156-4.303,0.827-6.055,2.071C23.059,41.29,23.437,40.864,23.83,40.456z"/>
		<path fill="#7F7F7F" d="M27.359,44.451c0.058-0.022,0.119-0.065,0.162-0.11c0.688-0.598,1.586-0.904,2.497-0.865
			c1.109,0.087,2.099,0.531,3,1.171c-0.22-0.289-0.463-0.562-0.72-0.82l0,0c-0.054-0.054-0.111-0.112-0.167-0.164h0
			c-0.006-0.007-0.013-0.013-0.018-0.019l0,0c-0.02-0.018-0.038-0.034-0.057-0.052l0,0c-0.368-0.345-0.765-0.662-1.194-0.928
			l0,0.001c-0.085-0.053-0.171-0.104-0.258-0.151c0,0-0.001,0-0.001,0c-1.367-0.744-3.269-0.692-4.481,0.355
			c-0.21,0.169-0.228,0.504-0.027,0.688l0.776,0.806l0.001-0.003c0.128,0.124,0.315,0.161,0.481,0.093
			c-0.001,0.002-0.003,0.003-0.004,0.004C27.353,44.455,27.355,44.453,27.359,44.451z"/>
		<path fill="#7F7F7F" d="M35.176,46.883l-0.173-0.18h0l-1.617-1.676c-0.167-0.207-0.49-0.222-0.677-0.034
			c-0.001,0.002-0.001,0.002-0.002,0.003c-0.001-0.001-0.002-0.001-0.002-0.001c-1.266,1.259-3.048,1.9-4.823,1.785l0,0
			c-1.882-0.118-3.644-0.989-5.161-2.064c0,0,0.04,0.054,0.115,0.147l0,0c0.541,0.687,1.148,1.325,1.795,1.911c0,0,0,0,0,0.002
			c0.061,0.056,0.123,0.111,0.185,0.164l0,0c0.505,0.446,1.042,0.857,1.612,1.215c0-0.001,0-0.001,0.001-0.001
			c0.021,0.015,0.041,0.025,0.061,0.041l0-0.002c0.07,0.044,0.14,0.088,0.211,0.127c0,0,0.001,0,0.002-0.002
			c0.478,0.284,0.983,0.531,1.51,0.714c0,0,0.001-0.002,0.002-0.002c1.784,0.617,3.964,0.399,5.637-0.474l0,0
			c0.492-0.258,0.959-0.583,1.343-0.984C35.393,47.392,35.388,47.056,35.176,46.883z"/>
	</g>
	<g>
		<path fill="#7F7F7F" d="M17.497,37.292c-0.144-0.269-0.28-0.541-0.409-0.816c0,0,0,0,0-0.001c-0.793-1.701-1.383-3.67-1.029-5.559
			c0.292-1.555,1.158-3.148,2.358-4.191c0-0.001,0-0.002,0.001-0.003c0.33-0.286,0.695-0.539,1.09-0.727
			c0.216-0.113,0.493-0.026,0.608,0.187l0.001,0.001c0.002,0.005,0.005,0.011,0.008,0.016l1.239,2.318
			c0.007,0.012,0.012,0.025,0.019,0.038c0-0.002,0-0.003,0-0.006c0.067,0.13,0.065,0.298-0.005,0.425c0-0.001,0-0.002,0-0.004
			c-0.051,0.095-0.131,0.169-0.228,0.208c-1.295,0.676-2.326,1.82-2.875,3.173c-0.827,2.042-0.541,4.346,0.102,6.396
			C18.052,38.282,17.764,37.791,17.497,37.292z"/>
		<path fill="#7F7F7F" d="M22.385,35.167c-0.005-0.062-0.025-0.133-0.055-0.187c-0.359-0.84-0.372-1.79-0.054-2.644
			c0.425-1.026,1.153-1.83,2.039-2.492c-0.343,0.12-0.677,0.269-1.001,0.432l0,0c-0.068,0.035-0.14,0.071-0.208,0.106v0
			c-0.008,0.004-0.016,0.009-0.023,0.013c0,0,0,0,0,0c-0.022,0.013-0.044,0.025-0.066,0.037l0,0
			c-0.442,0.244-0.867,0.524-1.251,0.85v0c-0.076,0.065-0.151,0.132-0.224,0.199c0,0,0,0.001,0,0.001
			c-1.13,1.072-1.667,2.894-1.045,4.372c0.096,0.252,0.409,0.372,0.647,0.238l1.004-0.49L22.147,35.6
			c0.156-0.083,0.25-0.25,0.238-0.429c0,0.002,0.001,0.004,0.001,0.006C22.386,35.175,22.385,35.171,22.385,35.167z"/>
		<path fill="#7F7F7F" d="M27.108,28.483l-0.225,0.109l0,0l-2.093,1.021c-0.249,0.097-0.361,0.398-0.241,0.634
			c0.001,0.001,0.001,0.002,0.001,0.003c0,0.001-0.001,0.001-0.001,0.001c0.807,1.592,0.866,3.484,0.211,5.137l0,0
			c-0.694,1.755-2.067,3.16-3.557,4.271c0,0,0.063-0.021,0.176-0.063l0,0c0.819-0.304,1.614-0.683,2.372-1.119v0.001
			c0.072-0.041,0.143-0.083,0.214-0.125l0,0c0.578-0.342,1.136-0.728,1.652-1.158c0-0.001,0-0.001-0.001-0.001
			c0.018-0.017,0.037-0.032,0.057-0.047h0c0.063-0.053,0.126-0.107,0.187-0.161c0,0-0.001-0.001-0.002-0.001
			c0.416-0.369,0.807-0.772,1.144-1.217c0-0.001-0.001-0.001-0.002-0.002c1.139-1.508,1.602-3.646,1.289-5.508l0,0
			c-0.093-0.546-0.26-1.091-0.522-1.581C27.656,28.434,27.337,28.336,27.108,28.483z"/>
	</g>
	<g>
		<path fill="#7F7F7F" d="M12.53,42.341c-0.299,0.053-0.6,0.1-0.902,0.137c0,0,0,0-0.001,0c-1.749,0.215-3.644,0.185-5.271-0.568
			c-1.539-0.715-2.928-2.138-3.592-3.704c-0.001,0-0.001,0-0.002-0.002c-0.17-0.401-0.297-0.827-0.356-1.259
			c-0.04-0.24,0.127-0.477,0.365-0.521l0.002-0.003c0.005,0,0.011-0.002,0.017-0.002l2.586-0.462
			c0.015-0.003,0.028-0.004,0.042-0.006c-0.002-0.001-0.004-0.001-0.004-0.001c0.143-0.025,0.303,0.029,0.401,0.136
			c-0.001-0.001-0.002-0.002-0.003-0.002c0.075,0.077,0.119,0.176,0.127,0.28c0.249,1.47,1.044,2.823,2.195,3.765
			c1.68,1.375,3.931,1.803,6.05,1.822C13.643,42.119,13.086,42.241,12.53,42.341z"/>
		<path fill="#7F7F7F" d="M12.017,37.037c-0.061-0.014-0.135-0.017-0.195-0.005c-0.909,0.081-1.815-0.2-2.529-0.765
			c-0.846-0.722-1.385-1.661-1.741-2.708c0.008,0.363,0.047,0.726,0.102,1.085l0,0c0.012,0.076,0.025,0.156,0.038,0.23h0
			c0.001,0.009,0.003,0.018,0.004,0.026l0,0c0.006,0.024,0.01,0.05,0.016,0.075l0,0c0.094,0.496,0.23,0.986,0.422,1.453h0
			c0.039,0.091,0.078,0.185,0.121,0.274c0,0,0.001,0,0.001,0c0.67,1.404,2.237,2.478,3.834,2.342c0.27-0.014,0.48-0.275,0.426-0.542
			l-0.156-1.106h-0.002c-0.03-0.175-0.161-0.313-0.335-0.359c0.002,0,0.004,0,0.006,0C12.024,37.038,12.021,37.038,12.017,37.037z"
			/>
		<path fill="#7F7F7F" d="M7.117,30.484l0.034,0.247l0.001,0l0.324,2.306c0.016,0.266,0.267,0.466,0.529,0.424
			c0.001,0,0.002-0.001,0.002-0.001c0,0.001,0.002,0.001,0.002,0.001c1.763-0.277,3.58,0.251,4.951,1.383l0,0
			c1.454,1.201,2.368,2.94,2.964,4.698c0,0,0-0.064-0.006-0.185l0,0c-0.036-0.874-0.152-1.747-0.332-2.601h0
			c-0.017-0.081-0.035-0.162-0.053-0.242l0,0c-0.147-0.656-0.341-1.305-0.591-1.929c0,0-0.001,0-0.001,0
			c-0.01-0.022-0.019-0.045-0.026-0.068c0,0,0,0-0.001,0c-0.032-0.076-0.063-0.152-0.097-0.228c-0.001,0-0.002,0-0.003,0
			c-0.221-0.507-0.483-1.005-0.804-1.462c-0.001,0-0.002,0-0.003,0.001c-1.081-1.548-2.974-2.648-4.84-2.923l0,0
			c-0.548-0.081-1.117-0.091-1.664,0.009C7.238,29.948,7.047,30.22,7.117,30.484z"/>
	</g>
	<g>
		<path fill="#7F7F7F" d="M15.799,48.627c-0.041,0.299-0.09,0.602-0.147,0.899c0,0,0,0-0.001,0c-0.324,1.68-0.911,3.407-2.053,4.713
			c-1.155,1.316-2.994,2.247-4.741,2.4c-0.001,0-0.001,0-0.003,0.002c-0.435,0.036-0.879,0.025-1.309-0.052
			c-0.24-0.033-0.414-0.267-0.382-0.508L7.161,56.08c0-0.005,0.001-0.012,0.002-0.018l0.358-2.602
			c0.001-0.015,0.005-0.028,0.006-0.042c0,0.001-0.001,0.003-0.002,0.003c0.021-0.142,0.121-0.279,0.253-0.34
			c-0.001,0.002-0.001,0.002-0.002,0.004c0.097-0.046,0.205-0.06,0.306-0.034c1.474,0.216,3.006-0.123,4.257-0.927
			c1.828-1.174,2.926-3.183,3.599-5.191C15.931,47.498,15.875,48.064,15.799,48.627z"/>
		<path fill="#7F7F7F" d="M10.598,47.478c-0.032,0.054-0.058,0.122-0.065,0.183c-0.204,0.892-0.75,1.667-1.507,2.173
			c-0.948,0.58-2.006,0.805-3.112,0.821c0.348,0.104,0.705,0.18,1.063,0.237l0,0c0.076,0.011,0.156,0.025,0.231,0.035v-0.002
			c0.008,0.002,0.018,0.002,0.027,0.004l0,0c0.025,0.003,0.05,0.007,0.075,0.011l0,0c0.5,0.061,1.007,0.083,1.511,0.045h0
			c0.099-0.008,0.199-0.018,0.297-0.031H9.12c1.542-0.206,3.047-1.364,3.409-2.926c0.071-0.26-0.113-0.539-0.383-0.571l-1.101-0.192
			v0.003c-0.174-0.024-0.352,0.058-0.444,0.207c0-0.002,0.001-0.003,0.002-0.005C10.601,47.472,10.6,47.474,10.598,47.478z"/>
		<path fill="#7F7F7F" d="M2.854,50.116L3.1,50.16c0-0.002,0-0.002,0-0.002l2.293,0.401c0.258,0.07,0.526-0.107,0.566-0.37
			c0-0.003,0-0.003,0-0.005c0.001,0,0.002,0,0.002,0c0.281-1.762,1.343-3.328,2.843-4.281l0,0c1.589-1.013,3.526-1.346,5.382-1.372
			c0,0-0.063-0.019-0.179-0.052l0,0c-0.841-0.235-1.708-0.395-2.576-0.485v-0.001c-0.082-0.009-0.164-0.017-0.246-0.023l0,0
			c-0.668-0.062-1.346-0.078-2.017-0.033c0,0.001,0,0.002,0,0.002c-0.023,0.002-0.049,0.002-0.073,0.004l0,0
			c-0.082,0.006-0.164,0.013-0.245,0.021c0,0.001,0,0.002-0.001,0.003c-0.551,0.053-1.105,0.15-1.638,0.313v0.002
			c-1.806,0.552-3.435,2.013-4.272,3.7l0,0c-0.247,0.498-0.431,1.035-0.504,1.587C2.382,49.835,2.582,50.103,2.854,50.116z"/>
	</g>
</g>
</svg>
